<svg id="visual" viewBox="0 0 450 300" width="1800" height="1200" xmlns="http://www.w3.org/2000/svg" xmlns:xlink="http://www.w3.org/1999/xlink" version="1.1"><g stroke-width="1" stroke-linejoin="bevel"><path d="M437 308L308 312L312 440Z" fill="#297ea6" stroke="#297ea6"></path><path d="M312 440L454 471L437 308Z" fill="#297ea6" stroke="#297ea6"></path><path d="M612 268L445 158L437 308Z" fill="#00101c" stroke="#00101c"></path><path d="M437 308L445 158L308 312Z" fill="#112e42" stroke="#112e42"></path><path d="M308 312L153 454L312 440Z" fill="#112e42" stroke="#112e42"></path><path d="M312 440L305 600L454 471Z" fill="#1d4e6b" stroke="#1d4e6b"></path><path d="M131 313L153 454L308 312Z" fill="#297ea6" stroke="#297ea6"></path><path d="M153 454L305 600L312 440Z" fill="#15384f" stroke="#15384f"></path><path d="M305 600L447 600L454 471Z" fill="#277297" stroke="#277297"></path><path d="M445 158L285 149L308 312Z" fill="#246688" stroke="#246688"></path><path d="M447 600L603 473L454 471Z" fill="#1d4e6b" stroke="#1d4e6b"></path><path d="M454 471L603 473L437 308Z" fill="#00101c" stroke="#00101c"></path><path d="M285 149L131 313L308 312Z" fill="#081a28" stroke="#081a28"></path><path d="M603 473L612 268L437 308Z" fill="#00101c" stroke="#00101c"></path><path d="M612 268L588 157L445 158Z" fill="#277297" stroke="#277297"></path><path d="M165 0L119 110L285 149Z" fill="#0c2435" stroke="#0c2435"></path><path d="M0 434L115 600L153 454Z" fill="#15384f" stroke="#15384f"></path><path d="M153 454L115 600L305 600Z" fill="#1d4e6b" stroke="#1d4e6b"></path><path d="M447 600L636 600L603 473Z" fill="#112e42" stroke="#112e42"></path><path d="M603 473L750 305L612 268Z" fill="#205a7a" stroke="#205a7a"></path><path d="M636 600L708 480L603 473Z" fill="#277297" stroke="#277297"></path><path d="M612 268L715 134L588 157Z" fill="#205a7a" stroke="#205a7a"></path><path d="M285 149L119 110L131 313Z" fill="#0c2435" stroke="#0c2435"></path><path d="M131 313L0 434L153 454Z" fill="#205a7a" stroke="#205a7a"></path><path d="M274 0L285 149L445 158Z" fill="#15384f" stroke="#15384f"></path><path d="M0 275L0 434L131 313Z" fill="#246688" stroke="#246688"></path><path d="M708 480L750 305L603 473Z" fill="#0c2435" stroke="#0c2435"></path><path d="M576 0L467 0L588 157Z" fill="#205a7a" stroke="#205a7a"></path><path d="M588 157L467 0L445 158Z" fill="#0c2435" stroke="#0c2435"></path><path d="M467 0L274 0L445 158Z" fill="#0c2435" stroke="#0c2435"></path><path d="M0 176L0 275L131 313Z" fill="#15384f" stroke="#15384f"></path><path d="M750 305L715 134L612 268Z" fill="#246688" stroke="#246688"></path><path d="M636 600L729 600L708 480Z" fill="#277297" stroke="#277297"></path><path d="M708 480L900 409L750 305Z" fill="#15384f" stroke="#15384f"></path><path d="M0 0L0 176L119 110Z" fill="#0c2435" stroke="#0c2435"></path><path d="M119 110L0 176L131 313Z" fill="#112e42" stroke="#112e42"></path><path d="M715 134L576 0L588 157Z" fill="#205a7a" stroke="#205a7a"></path><path d="M274 0L165 0L285 149Z" fill="#00101c" stroke="#00101c"></path><path d="M0 434L0 600L115 600Z" fill="#0c2435" stroke="#0c2435"></path><path d="M900 600L900 409L708 480Z" fill="#297ea6" stroke="#297ea6"></path><path d="M750 305L900 156L715 134Z" fill="#246688" stroke="#246688"></path><path d="M165 0L0 0L119 110Z" fill="#19435d" stroke="#19435d"></path><path d="M900 409L900 300L750 305Z" fill="#277297" stroke="#277297"></path><path d="M715 134L776 0L576 0Z" fill="#297ea6" stroke="#297ea6"></path><path d="M900 156L776 0L715 134Z" fill="#081a28" stroke="#081a28"></path><path d="M900 300L900 156L750 305Z" fill="#0c2435" stroke="#0c2435"></path><path d="M729 600L900 600L708 480Z" fill="#081a28" stroke="#081a28"></path><path d="M900 156L900 0L776 0Z" fill="#112e42" stroke="#112e42"></path></g></svg>